<svg xmlns="http://www.w3.org/2000/svg" version="1.1" viewBox="142 206 207 84" style="max-height: 500px" width="207" height="84">
<path transform="translate(173.54638671875,214.854736328125)" fill="#ffffff" d="M0 0 C1.53716106 -0.00299849 3.07432137 -0.00640259 4.61148071 -0.01017761 C8.75620219 -0.01895008 12.90090297 -0.02135281 17.04563284 -0.0219934 C19.64236379 -0.02270757 22.23908958 -0.02484877 24.83581924 -0.02749062 C33.9152891 -0.03672059 42.99474435 -0.04082832 52.07421875 -0.04003906 C60.50559297 -0.0394384 68.93690319 -0.04999396 77.36826122 -0.06578273 C84.63572038 -0.07890165 91.90315872 -0.08422116 99.17062962 -0.08358365 C103.49857093 -0.08333001 107.82645522 -0.08610691 112.15438461 -0.0967617 C116.2272961 -0.10651673 120.30009691 -0.10647171 124.37301254 -0.09924507 C125.85756596 -0.09820848 127.34212654 -0.10050628 128.82666779 -0.10660553 C159.7806426 -0.22542668 159.7806426 -0.22542668 169.45361328 9.14526367 C171.06106387 12.36016485 170.85666571 14.57537077 170.45361328 18.14526367 C165.86210844 27.09107383 157.70788999 31.12412358 148.55126953 34.23510742 C136.92091331 37.65234954 125.49445285 38.71786545 113.45361328 39.14526367 C113.45361328 39.80526367 113.45361328 40.46526367 113.45361328 41.14526367 C114.26056641 41.39018555 115.06751953 41.63510742 115.89892578 41.88745117 C120.19370199 43.40714121 124.22602578 45.29850648 128.32861328 47.27026367 C129.16360352 47.66914795 129.99859375 48.06803223 130.85888672 48.47900391 C143.89170871 54.72688828 156.73782255 61.27581351 169.45361328 68.14526367 C169.45361328 68.47526367 169.45361328 68.80526367 169.45361328 69.14526367 C162.80570897 69.40249127 156.15912037 69.57542351 149.50732422 69.69458008 C147.253256 69.74433522 144.99950121 69.8121694 142.74658203 69.8996582 C127.49977782 70.47616103 116.98935471 69.10826349 104.302948 60.36018372 C101.43652691 58.477089 98.42480894 57.05466516 95.32861328 55.58276367 C89.56963977 52.7564776 84.00547199 49.67397522 78.43823242 46.49414062 C72.87095364 43.33308734 67.1979327 40.45331096 61.44189453 37.65307617 C58.69181964 36.26545668 56.07087309 34.76709071 53.45361328 33.14526367 C57.96498227 28.23583271 61.64120167 25.43096179 68.39746094 24.74462891 C69.8873328 24.71670127 71.37754219 24.70390687 72.86767578 24.70385742 C73.67177887 24.6914653 74.47588196 24.67907318 75.30435181 24.66630554 C77.01487594 24.64055587 78.72549875 24.6207692 80.43615723 24.60650635 C84.84627742 24.56688107 89.25524727 24.47502893 93.66455078 24.38354492 C94.52242188 24.36640442 95.38029297 24.34926392 96.26416016 24.331604 C102.76432409 24.19000227 109.22974722 23.89451586 115.70361328 23.27026367 C116.48043457 23.20379639 117.25725586 23.1373291 118.05761719 23.06884766 C120.9278311 22.75672274 123.0437534 22.43087469 125.43798828 20.76245117 C126.71953147 19.04011626 126.71953147 19.04011626 126.45361328 16.14526367 C120.79793443 15.339648 115.32851457 14.99954743 109.62036133 15.00341797 C108.7749881 14.99994354 107.92961487 14.99646912 107.05862427 14.9928894 C105.23249139 14.98557465 103.40634988 14.98020664 101.58020592 14.97659874 C98.66105148 14.96934759 95.742057 14.95361072 92.82295227 14.93525696 C84.5254663 14.88324521 76.22806476 14.83504498 67.93041992 14.81933594 C35.82822242 14.74927901 4.12518597 13.91241802 -26.54638672 3.14526367 C-26.54638672 2.48526367 -26.54638672 1.82526367 -26.54638672 1.14526367 C-17.69500118 0.12841154 -8.89668911 -0.00349515 0 0 Z"/>
<path transform="translate(338,281)" fill="#ffffff" d="M0 0 C2.475 0.99 2.475 0.99 5 2 C5 2.33 5 2.66 5 3 C-11.17 3 -27.34 3 -44 3 C-44 2.67 -44 2.34 -44 2 C-29.48 2 -14.96 2 0 2 C0 1.34 0 0.68 0 0 Z"/>
<path transform="translate(238,241)" fill="#ffffff" d="M0 0 C-1.15173355 2.46800047 -2.04783565 4.04783565 -4 6 C-3.34 7.65 -2.68 9.3 -2 11 C-5.0831351 9.80100302 -8.06279492 8.52299523 -11 7 C-4.36842105 0 -4.36842105 0 0 0 Z"/>
</svg>